<svg width="228" height="220" viewBox="0 0 228 220" fill="none" xmlns="http://www.w3.org/2000/svg">
<rect width="228" height="220" rx="16" fill="url(#paint0_linear_1_674)"/>
<g opacity="0.24">
<path d="M59.6882 41L58.6749 44.4417V144.302L59.6882 145.313L106.041 117.913L59.6882 41Z" fill="#D3D3D3"/>
<path d="M59.6881 41L13.3337 117.913L59.6881 145.313V96.8435V41Z" fill="white"/>
<path d="M59.688 154.089L59.1169 154.786V190.357L59.688 192.025L106.07 126.704L59.688 154.089Z" fill="#D3D3D3"/>
<path d="M59.6881 192.025V154.089L13.3337 126.704L59.6881 192.025Z" fill="white"/>
<path d="M59.688 145.313L106.041 117.913L59.688 96.8435V145.313Z" fill="#B1B1B1"/>
<path d="M13.3337 117.913L59.6881 145.313V96.8435L13.3337 117.913Z" fill="#EDEDED"/>
</g>
<path d="M80.488 44V40.904L77.704 35.6H79.144L81.124 39.656L83.092 35.6H84.52L81.76 40.904V44H80.488ZM87.2521 44.144C86.6841 44.144 86.1721 44.016 85.7161 43.76C85.2681 43.496 84.9121 43.132 84.6481 42.668C84.3841 42.196 84.2521 41.648 84.2521 41.024C84.2521 40.4 84.3841 39.856 84.6481 39.392C84.9201 38.92 85.2841 38.556 85.7401 38.3C86.1961 38.036 86.7041 37.904 87.2641 37.904C87.8321 37.904 88.3401 38.036 88.7881 38.3C89.2441 38.556 89.6041 38.92 89.8681 39.392C90.1401 39.856 90.2761 40.4 90.2761 41.024C90.2761 41.648 90.1401 42.196 89.8681 42.668C89.6041 43.132 89.2441 43.496 88.7881 43.76C88.3321 44.016 87.8201 44.144 87.2521 44.144ZM87.2521 43.052C87.5561 43.052 87.8361 42.976 88.0921 42.824C88.3561 42.672 88.5681 42.448 88.7281 42.152C88.8881 41.848 88.9681 41.472 88.9681 41.024C88.9681 40.576 88.8881 40.204 88.7281 39.908C88.5761 39.604 88.3681 39.376 88.1041 39.224C87.8481 39.072 87.5681 38.996 87.2641 38.996C86.9601 38.996 86.6761 39.072 86.4121 39.224C86.1561 39.376 85.9481 39.604 85.7881 39.908C85.6281 40.204 85.5481 40.576 85.5481 41.024C85.5481 41.472 85.6281 41.848 85.7881 42.152C85.9481 42.448 86.1561 42.672 86.4121 42.824C86.6681 42.976 86.9481 43.052 87.2521 43.052ZM93.8477 44.144C93.1277 44.144 92.5597 43.92 92.1437 43.472C91.7357 43.024 91.5317 42.356 91.5317 41.468V38.048H92.8037V41.336C92.8037 42.488 93.2757 43.064 94.2197 43.064C94.6917 43.064 95.0797 42.896 95.3837 42.56C95.6877 42.224 95.8397 41.744 95.8397 41.12V38.048H97.1117V44H95.9837L95.8877 42.956C95.7037 43.324 95.4317 43.616 95.0717 43.832C94.7197 44.04 94.3117 44.144 93.8477 44.144ZM98.7298 44V38.048H99.8698L99.9778 39.176C100.186 38.784 100.474 38.476 100.842 38.252C101.218 38.02 101.67 37.904 102.198 37.904V39.236H101.85C101.498 39.236 101.182 39.296 100.902 39.416C100.63 39.528 100.41 39.724 100.242 40.004C100.082 40.276 100.002 40.656 100.002 41.144V44H98.7298ZM106.36 44V35.6H109.528C110.4 35.6 111.06 35.804 111.508 36.212C111.956 36.62 112.18 37.132 112.18 37.748C112.18 38.284 112.036 38.712 111.748 39.032C111.46 39.344 111.112 39.556 110.704 39.668C111.024 39.732 111.308 39.86 111.556 40.052C111.812 40.244 112.012 40.484 112.156 40.772C112.3 41.06 112.372 41.372 112.372 41.708C112.372 42.14 112.264 42.532 112.048 42.884C111.84 43.228 111.532 43.5 111.124 43.7C110.716 43.9 110.216 44 109.624 44H106.36ZM107.632 39.2H109.372C109.86 39.2 110.232 39.088 110.488 38.864C110.744 38.632 110.872 38.316 110.872 37.916C110.872 37.524 110.744 37.212 110.488 36.98C110.24 36.748 109.86 36.632 109.348 36.632H107.632V39.2ZM107.632 42.956H109.456C109.968 42.956 110.364 42.836 110.644 42.596C110.932 42.356 111.076 42.02 111.076 41.588C111.076 41.156 110.928 40.816 110.632 40.568C110.336 40.312 109.936 40.184 109.432 40.184H107.632V42.956ZM115.734 44.144C115.23 44.144 114.814 44.06 114.486 43.892C114.158 43.724 113.914 43.504 113.754 43.232C113.594 42.952 113.514 42.648 113.514 42.32C113.514 41.744 113.738 41.288 114.186 40.952C114.634 40.616 115.274 40.448 116.106 40.448H117.666V40.34C117.666 39.876 117.538 39.528 117.282 39.296C117.034 39.064 116.71 38.948 116.31 38.948C115.958 38.948 115.65 39.036 115.386 39.212C115.13 39.38 114.974 39.632 114.918 39.968H113.646C113.686 39.536 113.83 39.168 114.078 38.864C114.334 38.552 114.654 38.316 115.038 38.156C115.43 37.988 115.858 37.904 116.322 37.904C117.154 37.904 117.798 38.124 118.254 38.564C118.71 38.996 118.938 39.588 118.938 40.34V44H117.834L117.726 42.98C117.558 43.308 117.314 43.584 116.994 43.808C116.674 44.032 116.254 44.144 115.734 44.144ZM115.986 43.112C116.33 43.112 116.618 43.032 116.85 42.872C117.09 42.704 117.274 42.484 117.402 42.212C117.538 41.94 117.622 41.64 117.654 41.312H116.238C115.734 41.312 115.374 41.4 115.158 41.576C114.95 41.752 114.846 41.972 114.846 42.236C114.846 42.508 114.946 42.724 115.146 42.884C115.354 43.036 115.634 43.112 115.986 43.112ZM120.421 44V35.36H121.693V44H120.421ZM125.32 44.144C124.816 44.144 124.4 44.06 124.072 43.892C123.744 43.724 123.5 43.504 123.34 43.232C123.18 42.952 123.1 42.648 123.1 42.32C123.1 41.744 123.324 41.288 123.772 40.952C124.22 40.616 124.86 40.448 125.692 40.448H127.252V40.34C127.252 39.876 127.124 39.528 126.868 39.296C126.62 39.064 126.296 38.948 125.896 38.948C125.544 38.948 125.236 39.036 124.972 39.212C124.716 39.38 124.56 39.632 124.504 39.968H123.232C123.272 39.536 123.416 39.168 123.664 38.864C123.92 38.552 124.24 38.316 124.624 38.156C125.016 37.988 125.444 37.904 125.908 37.904C126.74 37.904 127.384 38.124 127.84 38.564C128.296 38.996 128.524 39.588 128.524 40.34V44H127.42L127.312 42.98C127.144 43.308 126.9 43.584 126.58 43.808C126.26 44.032 125.84 44.144 125.32 44.144ZM125.572 43.112C125.916 43.112 126.204 43.032 126.436 42.872C126.676 42.704 126.86 42.484 126.988 42.212C127.124 41.94 127.208 41.64 127.24 41.312H125.824C125.32 41.312 124.96 41.4 124.744 41.576C124.536 41.752 124.432 41.972 124.432 42.236C124.432 42.508 124.532 42.724 124.732 42.884C124.94 43.036 125.22 43.112 125.572 43.112ZM130.007 44V38.048H131.135L131.231 39.092C131.415 38.724 131.683 38.436 132.035 38.228C132.395 38.012 132.807 37.904 133.271 37.904C133.991 37.904 134.555 38.128 134.963 38.576C135.379 39.024 135.587 39.692 135.587 40.58V44H134.327V40.712C134.327 39.56 133.855 38.984 132.911 38.984C132.439 38.984 132.047 39.152 131.735 39.488C131.431 39.824 131.279 40.304 131.279 40.928V44H130.007ZM139.905 44.144C139.321 44.144 138.797 44.012 138.333 43.748C137.877 43.484 137.517 43.12 137.253 42.656C136.997 42.184 136.869 41.64 136.869 41.024C136.869 40.408 136.997 39.868 137.253 39.404C137.517 38.932 137.877 38.564 138.333 38.3C138.797 38.036 139.321 37.904 139.905 37.904C140.641 37.904 141.257 38.096 141.753 38.48C142.257 38.864 142.581 39.384 142.725 40.04H141.393C141.313 39.712 141.137 39.456 140.865 39.272C140.593 39.088 140.273 38.996 139.905 38.996C139.593 38.996 139.305 39.076 139.041 39.236C138.777 39.388 138.565 39.616 138.405 39.92C138.245 40.216 138.165 40.584 138.165 41.024C138.165 41.464 138.245 41.836 138.405 42.14C138.565 42.436 138.777 42.664 139.041 42.824C139.305 42.984 139.593 43.064 139.905 43.064C140.273 43.064 140.593 42.972 140.865 42.788C141.137 42.604 141.313 42.344 141.393 42.008H142.725C142.589 42.648 142.269 43.164 141.765 43.556C141.261 43.948 140.641 44.144 139.905 44.144ZM146.889 44.144C146.305 44.144 145.785 44.016 145.329 43.76C144.881 43.496 144.529 43.132 144.273 42.668C144.017 42.204 143.889 41.664 143.889 41.048C143.889 40.424 144.013 39.876 144.261 39.404C144.517 38.932 144.869 38.564 145.317 38.3C145.773 38.036 146.301 37.904 146.901 37.904C147.485 37.904 147.993 38.036 148.425 38.3C148.857 38.556 149.193 38.9 149.433 39.332C149.673 39.764 149.793 40.24 149.793 40.76C149.793 40.84 149.789 40.928 149.781 41.024C149.781 41.112 149.777 41.212 149.769 41.324H145.137C145.177 41.9 145.365 42.34 145.701 42.644C146.045 42.94 146.441 43.088 146.889 43.088C147.249 43.088 147.549 43.008 147.789 42.848C148.037 42.68 148.221 42.456 148.341 42.176H149.613C149.453 42.736 149.133 43.204 148.653 43.58C148.181 43.956 147.593 44.144 146.889 44.144ZM146.889 38.948C146.465 38.948 146.089 39.076 145.761 39.332C145.433 39.58 145.233 39.956 145.161 40.46H148.521C148.497 39.996 148.333 39.628 148.029 39.356C147.725 39.084 147.345 38.948 146.889 38.948Z" fill="#E0DEE6"/>
<path d="M58.32 86V69.38L54.87 70.19V67.25L59.94 65H62.31V86H58.32ZM64.7618 89.48L66.4718 82.01H70.1918L67.2818 89.48H64.7618ZM81.9352 86.36C79.9952 86.36 78.3352 85.91 76.9552 85.01C75.5752 84.09 74.5052 82.82 73.7452 81.2C73.0052 79.56 72.6352 77.66 72.6352 75.5C72.6352 73.36 73.0052 71.47 73.7452 69.83C74.5052 68.19 75.5752 66.92 76.9552 66.02C78.3352 65.1 79.9952 64.64 81.9352 64.64C83.8752 64.64 85.5352 65.1 86.9152 66.02C88.2952 66.92 89.3552 68.19 90.0952 69.83C90.8552 71.47 91.2352 73.36 91.2352 75.5C91.2352 77.66 90.8552 79.56 90.0952 81.2C89.3552 82.82 88.2952 84.09 86.9152 85.01C85.5352 85.91 83.8752 86.36 81.9352 86.36ZM81.9352 82.91C83.5152 82.91 84.8052 82.25 85.8052 80.93C86.8052 79.61 87.3052 77.8 87.3052 75.5C87.3052 73.2 86.8052 71.39 85.8052 70.07C84.8052 68.75 83.5152 68.09 81.9352 68.09C80.3352 68.09 79.0352 68.75 78.0352 70.07C77.0552 71.39 76.5652 73.2 76.5652 75.5C76.5652 77.8 77.0552 79.61 78.0352 80.93C79.0352 82.25 80.3352 82.91 81.9352 82.91ZM101.494 86.36C100.114 86.36 98.864 86.12 97.744 85.64C96.624 85.14 95.724 84.38 95.044 83.36C94.364 82.34 94.004 81.06 93.964 79.52H97.744C97.764 80.54 98.094 81.4 98.734 82.1C99.394 82.78 100.314 83.12 101.494 83.12C102.614 83.12 103.474 82.81 104.074 82.19C104.674 81.57 104.974 80.79 104.974 79.85C104.974 78.75 104.574 77.92 103.774 77.36C102.994 76.78 101.984 76.49 100.744 76.49H99.184V73.34H100.774C101.794 73.34 102.644 73.1 103.324 72.62C104.004 72.14 104.344 71.43 104.344 70.49C104.344 69.71 104.084 69.09 103.564 68.63C103.064 68.15 102.364 67.91 101.464 67.91C100.484 67.91 99.714 68.2 99.154 68.78C98.614 69.36 98.314 70.07 98.254 70.91H94.504C94.584 68.97 95.254 67.44 96.514 66.32C97.794 65.2 99.444 64.64 101.464 64.64C102.904 64.64 104.114 64.9 105.094 65.42C106.094 65.92 106.844 66.59 107.344 67.43C107.864 68.27 108.124 69.2 108.124 70.22C108.124 71.4 107.794 72.4 107.134 73.22C106.494 74.02 105.694 74.56 104.734 74.84C105.914 75.08 106.874 75.66 107.614 76.58C108.354 77.48 108.724 78.62 108.724 80C108.724 81.16 108.444 82.22 107.884 83.18C107.324 84.14 106.504 84.91 105.424 85.49C104.364 86.07 103.054 86.36 101.494 86.36ZM122.095 86V82.1H111.745V79.04L121.585 65H125.935V78.77H128.695V82.1H125.935V86H122.095ZM115.855 78.77H122.335V69.23L115.855 78.77ZM133.274 86.21C132.574 86.21 131.994 85.99 131.534 85.55C131.094 85.11 130.874 84.58 130.874 83.96C130.874 83.32 131.094 82.78 131.534 82.34C131.994 81.9 132.574 81.68 133.274 81.68C133.974 81.68 134.544 81.9 134.984 82.34C135.444 82.78 135.674 83.32 135.674 83.96C135.674 84.58 135.444 85.11 134.984 85.55C134.544 85.99 133.974 86.21 133.274 86.21ZM146.33 86.36C144.39 86.36 142.73 85.91 141.35 85.01C139.97 84.09 138.9 82.82 138.14 81.2C137.4 79.56 137.03 77.66 137.03 75.5C137.03 73.36 137.4 71.47 138.14 69.83C138.9 68.19 139.97 66.92 141.35 66.02C142.73 65.1 144.39 64.64 146.33 64.64C148.27 64.64 149.93 65.1 151.31 66.02C152.69 66.92 153.75 68.19 154.49 69.83C155.25 71.47 155.63 73.36 155.63 75.5C155.63 77.66 155.25 79.56 154.49 81.2C153.75 82.82 152.69 84.09 151.31 85.01C149.93 85.91 148.27 86.36 146.33 86.36ZM146.33 82.91C147.91 82.91 149.2 82.25 150.2 80.93C151.2 79.61 151.7 77.8 151.7 75.5C151.7 73.2 151.2 71.39 150.2 70.07C149.2 68.75 147.91 68.09 146.33 68.09C144.73 68.09 143.43 68.75 142.43 70.07C141.45 71.39 140.96 73.2 140.96 75.5C140.96 77.8 141.45 79.61 142.43 80.93C143.43 82.25 144.73 82.91 146.33 82.91ZM158.362 86V83.21C159.642 82.15 160.882 81.1 162.082 80.06C163.302 79.02 164.382 77.99 165.322 76.97C166.282 75.95 167.042 74.96 167.602 74C168.182 73.02 168.472 72.07 168.472 71.15C168.472 70.29 168.232 69.53 167.752 68.87C167.292 68.21 166.522 67.88 165.442 67.88C164.342 67.88 163.512 68.24 162.952 68.96C162.392 69.68 162.112 70.55 162.112 71.57H158.392C158.432 70.03 158.772 68.75 159.412 67.73C160.052 66.69 160.902 65.92 161.962 65.42C163.022 64.9 164.212 64.64 165.532 64.64C167.672 64.64 169.332 65.23 170.512 66.41C171.712 67.57 172.312 69.08 172.312 70.94C172.312 72.1 172.042 73.23 171.502 74.33C170.982 75.43 170.292 76.49 169.432 77.51C168.572 78.53 167.642 79.49 166.642 80.39C165.642 81.27 164.672 82.09 163.732 82.85H172.822V86H158.362Z" fill="white"/>
<circle cx="98.5" cy="121" r="10" fill="#EDF0F4"/>
<path d="M98.4727 115L98.3931 115.27V123.11L98.4727 123.19L102.112 121.039L98.4727 115Z" fill="#343434"/>
<path d="M98.4727 115L94.8333 121.039L98.4727 123.19V119.384V115Z" fill="#8C8C8C"/>
<path d="M98.4727 123.879L98.4279 123.934V126.726L98.4727 126.857L102.114 121.729L98.4727 123.879Z" fill="#3C3C3B"/>
<path d="M98.4727 126.857V123.879L94.8333 121.729L98.4727 126.857Z" fill="#8C8C8C"/>
<path d="M98.4727 123.19L102.112 121.039L98.4727 119.384V123.19Z" fill="#141414"/>
<path d="M94.8333 121.039L98.4727 123.19V119.384L94.8333 121.039Z" fill="#393939"/>
<path d="M117.352 125V116.6H122.692V117.632H118.624V120.248H122.332V121.256H118.624V123.968H122.692V125H117.352ZM126.175 125V117.632H123.691V116.6H129.919V117.632H127.447V125H126.175ZM131.11 125V116.6H132.382V120.2H136.45V116.6H137.722V125H136.45V121.244H132.382V125H131.11Z" fill="white"/>
<rect x="16" y="155" width="196" height="49" rx="12" fill="white"/>
<rect x="32" y="169.5" width="20" height="20" rx="10" fill="#5429FF"/>
<path d="M39 179.5H45" stroke="white" stroke-width="1.5" stroke-linecap="round" stroke-linejoin="round"/>
<path d="M42 182.5V176.5" stroke="white" stroke-width="1.5" stroke-linecap="round" stroke-linejoin="round"/>
<path d="M67.234 184V175.642H64.378V174.2H71.896V175.642H69.026V184H67.234ZM75.2557 184.168C74.5837 184.168 73.977 184.014 73.4357 183.706C72.9037 183.398 72.479 182.973 72.1617 182.432C71.8537 181.881 71.6997 181.247 71.6997 180.528C71.6997 179.809 71.8583 179.179 72.1757 178.638C72.493 178.087 72.9177 177.658 73.4497 177.35C73.991 177.042 74.5977 176.888 75.2697 176.888C75.9323 176.888 76.5297 177.042 77.0617 177.35C77.603 177.658 78.0277 178.087 78.3357 178.638C78.653 179.179 78.8117 179.809 78.8117 180.528C78.8117 181.247 78.653 181.881 78.3357 182.432C78.0277 182.973 77.603 183.398 77.0617 183.706C76.5203 184.014 75.9183 184.168 75.2557 184.168ZM75.2557 182.614C75.7223 182.614 76.1283 182.441 76.4737 182.096C76.819 181.741 76.9917 181.219 76.9917 180.528C76.9917 179.837 76.819 179.319 76.4737 178.974C76.1283 178.619 75.727 178.442 75.2697 178.442C74.7937 178.442 74.383 178.619 74.0377 178.974C73.7017 179.319 73.5337 179.837 73.5337 180.528C73.5337 181.219 73.7017 181.741 74.0377 182.096C74.383 182.441 74.789 182.614 75.2557 182.614ZM80.4139 187.08V177.056H82.0099L82.2059 178.05C82.4299 177.742 82.7239 177.471 83.0879 177.238C83.4612 177.005 83.9419 176.888 84.5299 176.888C85.1832 176.888 85.7666 177.047 86.2799 177.364C86.7932 177.681 87.1992 178.115 87.4979 178.666C87.7966 179.217 87.9459 179.842 87.9459 180.542C87.9459 181.242 87.7966 181.867 87.4979 182.418C87.1992 182.959 86.7932 183.389 86.2799 183.706C85.7666 184.014 85.1832 184.168 84.5299 184.168C84.0072 184.168 83.5499 184.07 83.1579 183.874C82.7659 183.678 82.4486 183.403 82.2059 183.048V187.08H80.4139ZM84.1519 182.6C84.7212 182.6 85.1926 182.409 85.5659 182.026C85.9392 181.643 86.1259 181.149 86.1259 180.542C86.1259 179.935 85.9392 179.436 85.5659 179.044C85.1926 178.652 84.7212 178.456 84.1519 178.456C83.5732 178.456 83.0972 178.652 82.7239 179.044C82.3599 179.427 82.1779 179.921 82.1779 180.528C82.1779 181.135 82.3599 181.634 82.7239 182.026C83.0972 182.409 83.5732 182.6 84.1519 182.6ZM96.7047 184.168C95.986 184.168 95.3373 184.028 94.7587 183.748C94.18 183.459 93.718 183.025 93.3727 182.446C93.0367 181.867 92.8687 181.135 92.8687 180.248V174.2H94.6607V180.262C94.6607 181.027 94.8427 181.597 95.2067 181.97C95.58 182.343 96.0933 182.53 96.7467 182.53C97.3907 182.53 97.8993 182.343 98.2727 181.97C98.646 181.597 98.8327 181.027 98.8327 180.262V174.2H100.625V180.248C100.625 181.135 100.447 181.867 100.093 182.446C99.738 183.025 99.262 183.459 98.6647 183.748C98.0767 184.028 97.4233 184.168 96.7047 184.168ZM102.412 187.08V177.056H104.008L104.204 178.05C104.428 177.742 104.722 177.471 105.086 177.238C105.459 177.005 105.94 176.888 106.528 176.888C107.181 176.888 107.765 177.047 108.278 177.364C108.791 177.681 109.197 178.115 109.496 178.666C109.795 179.217 109.944 179.842 109.944 180.542C109.944 181.242 109.795 181.867 109.496 182.418C109.197 182.959 108.791 183.389 108.278 183.706C107.765 184.014 107.181 184.168 106.528 184.168C106.005 184.168 105.548 184.07 105.156 183.874C104.764 183.678 104.447 183.403 104.204 183.048V187.08H102.412ZM106.15 182.6C106.719 182.6 107.191 182.409 107.564 182.026C107.937 181.643 108.124 181.149 108.124 180.542C108.124 179.935 107.937 179.436 107.564 179.044C107.191 178.652 106.719 178.456 106.15 178.456C105.571 178.456 105.095 178.652 104.722 179.044C104.358 179.427 104.176 179.921 104.176 180.528C104.176 181.135 104.358 181.634 104.722 182.026C105.095 182.409 105.571 182.6 106.15 182.6ZM114.923 184V174.2H118.857C119.874 174.2 120.649 174.438 121.181 174.914C121.722 175.381 121.993 175.983 121.993 176.72C121.993 177.336 121.825 177.831 121.489 178.204C121.162 178.568 120.761 178.815 120.285 178.946C120.845 179.058 121.307 179.338 121.671 179.786C122.035 180.225 122.217 180.738 122.217 181.326C122.217 182.101 121.937 182.74 121.377 183.244C120.817 183.748 120.023 184 118.997 184H114.923ZM116.715 178.316H118.591C119.095 178.316 119.482 178.199 119.753 177.966C120.023 177.733 120.159 177.401 120.159 176.972C120.159 176.561 120.023 176.239 119.753 176.006C119.491 175.763 119.095 175.642 118.563 175.642H116.715V178.316ZM116.715 182.544H118.717C119.249 182.544 119.659 182.423 119.949 182.18C120.247 181.928 120.397 181.578 120.397 181.13C120.397 180.673 120.243 180.313 119.935 180.052C119.627 179.791 119.211 179.66 118.689 179.66H116.715V182.544ZM126.107 184.168C125.509 184.168 125.019 184.075 124.637 183.888C124.254 183.692 123.969 183.435 123.783 183.118C123.596 182.801 123.503 182.451 123.503 182.068C123.503 181.424 123.755 180.901 124.259 180.5C124.763 180.099 125.519 179.898 126.527 179.898H128.291V179.73C128.291 179.254 128.155 178.904 127.885 178.68C127.614 178.456 127.278 178.344 126.877 178.344C126.513 178.344 126.195 178.433 125.925 178.61C125.654 178.778 125.486 179.03 125.421 179.366H123.671C123.717 178.862 123.885 178.423 124.175 178.05C124.473 177.677 124.856 177.392 125.323 177.196C125.789 176.991 126.312 176.888 126.891 176.888C127.88 176.888 128.659 177.135 129.229 177.63C129.798 178.125 130.083 178.825 130.083 179.73V184H128.557L128.389 182.88C128.183 183.253 127.894 183.561 127.521 183.804C127.157 184.047 126.685 184.168 126.107 184.168ZM126.513 182.768C127.026 182.768 127.423 182.6 127.703 182.264C127.992 181.928 128.174 181.513 128.249 181.018H126.723C126.247 181.018 125.906 181.107 125.701 181.284C125.495 181.452 125.393 181.662 125.393 181.914C125.393 182.185 125.495 182.395 125.701 182.544C125.906 182.693 126.177 182.768 126.513 182.768ZM131.793 184V173.92H133.585V184H131.793ZM137.81 184.168C137.213 184.168 136.723 184.075 136.34 183.888C135.957 183.692 135.673 183.435 135.486 183.118C135.299 182.801 135.206 182.451 135.206 182.068C135.206 181.424 135.458 180.901 135.962 180.5C136.466 180.099 137.222 179.898 138.23 179.898H139.994V179.73C139.994 179.254 139.859 178.904 139.588 178.68C139.317 178.456 138.981 178.344 138.58 178.344C138.216 178.344 137.899 178.433 137.628 178.61C137.357 178.778 137.189 179.03 137.124 179.366H135.374C135.421 178.862 135.589 178.423 135.878 178.05C136.177 177.677 136.559 177.392 137.026 177.196C137.493 176.991 138.015 176.888 138.594 176.888C139.583 176.888 140.363 177.135 140.932 177.63C141.501 178.125 141.786 178.825 141.786 179.73V184H140.26L140.092 182.88C139.887 183.253 139.597 183.561 139.224 183.804C138.86 184.047 138.389 184.168 137.81 184.168ZM138.216 182.768C138.729 182.768 139.126 182.6 139.406 182.264C139.695 181.928 139.877 181.513 139.952 181.018H138.426C137.95 181.018 137.609 181.107 137.404 181.284C137.199 181.452 137.096 181.662 137.096 181.914C137.096 182.185 137.199 182.395 137.404 182.544C137.609 182.693 137.88 182.768 138.216 182.768ZM143.496 184V177.056H145.078L145.218 178.232C145.433 177.821 145.741 177.495 146.142 177.252C146.553 177.009 147.033 176.888 147.584 176.888C148.443 176.888 149.11 177.159 149.586 177.7C150.062 178.241 150.3 179.035 150.3 180.08V184H148.508V180.248C148.508 179.651 148.387 179.193 148.144 178.876C147.901 178.559 147.523 178.4 147.01 178.4C146.506 178.4 146.091 178.577 145.764 178.932C145.447 179.287 145.288 179.781 145.288 180.416V184H143.496ZM155.416 184.168C154.706 184.168 154.081 184.014 153.54 183.706C152.998 183.398 152.569 182.969 152.252 182.418C151.944 181.867 151.79 181.237 151.79 180.528C151.79 179.819 151.944 179.189 152.252 178.638C152.569 178.087 152.998 177.658 153.54 177.35C154.081 177.042 154.706 176.888 155.416 176.888C156.302 176.888 157.049 177.121 157.656 177.588C158.262 178.045 158.65 178.68 158.818 179.492H156.928C156.834 179.156 156.648 178.895 156.368 178.708C156.097 178.512 155.775 178.414 155.402 178.414C154.907 178.414 154.487 178.601 154.142 178.974C153.796 179.347 153.624 179.865 153.624 180.528C153.624 181.191 153.796 181.709 154.142 182.082C154.487 182.455 154.907 182.642 155.402 182.642C155.775 182.642 156.097 182.549 156.368 182.362C156.648 182.175 156.834 181.909 156.928 181.564H158.818C158.65 182.348 158.262 182.978 157.656 183.454C157.049 183.93 156.302 184.168 155.416 184.168ZM163.782 184.168C163.082 184.168 162.461 184.019 161.92 183.72C161.379 183.421 160.954 183.001 160.646 182.46C160.338 181.919 160.184 181.293 160.184 180.584C160.184 179.865 160.333 179.226 160.632 178.666C160.94 178.106 161.36 177.672 161.892 177.364C162.433 177.047 163.068 176.888 163.796 176.888C164.477 176.888 165.079 177.037 165.602 177.336C166.125 177.635 166.531 178.045 166.82 178.568C167.119 179.081 167.268 179.655 167.268 180.29C167.268 180.393 167.263 180.5 167.254 180.612C167.254 180.724 167.249 180.841 167.24 180.962H161.962C161.999 181.503 162.186 181.928 162.522 182.236C162.867 182.544 163.283 182.698 163.768 182.698C164.132 182.698 164.435 182.619 164.678 182.46C164.93 182.292 165.117 182.077 165.238 181.816H167.058C166.927 182.255 166.708 182.656 166.4 183.02C166.101 183.375 165.728 183.655 165.28 183.86C164.841 184.065 164.342 184.168 163.782 184.168ZM163.796 178.344C163.357 178.344 162.97 178.47 162.634 178.722C162.298 178.965 162.083 179.338 161.99 179.842H165.448C165.42 179.385 165.252 179.021 164.944 178.75C164.636 178.479 164.253 178.344 163.796 178.344Z" fill="#27262E"/>
<path d="M188.455 183.46L191.715 180.2C192.1 179.815 192.1 179.185 191.715 178.8L188.455 175.54" stroke="#817C8E" stroke-width="1.5" stroke-miterlimit="10" stroke-linecap="round" stroke-linejoin="round"/>
<defs>
<linearGradient id="paint0_linear_1_674" x1="223.21" y1="5.61669e-06" x2="-9.00415" y2="210.046" gradientUnits="userSpaceOnUse">
<stop stop-color="#5429FF"/>
<stop offset="1" stop-color="#BBAAFF"/>
</linearGradient>
</defs>
</svg>
