<svg width="100" height="28" viewBox="0 0 100 28" fill="none" xmlns="http://www.w3.org/2000/svg">
<g filter="url(#filter0_b_1_982)">
<rect width="100" height="28" rx="14" fill="#161616" fill-opacity="0.16"/>
<path d="M20.6667 14C20.6667 17.68 17.68 20.6667 14 20.6667C10.32 20.6667 7.33334 17.68 7.33334 14C7.33334 10.32 10.32 7.33333 14 7.33333C17.68 7.33333 20.6667 10.32 20.6667 14Z" stroke="white" stroke-width="1.5" stroke-linecap="round" stroke-linejoin="round"/>
<path d="M16.4733 16.12L14.4067 14.8867C14.0467 14.6733 13.7533 14.16 13.7533 13.74V11.0067" stroke="white" stroke-width="1.5" stroke-linecap="round" stroke-linejoin="round"/>
<path d="M31.728 18V11.352L30.348 11.676V10.5L32.376 9.6H33.324V18H31.728ZM34.7487 18V16.884C35.2607 16.46 35.7567 16.04 36.2367 15.624C36.7247 15.208 37.1567 14.796 37.5327 14.388C37.9167 13.98 38.2207 13.584 38.4447 13.2C38.6767 12.808 38.7927 12.428 38.7927 12.06C38.7927 11.716 38.6967 11.412 38.5047 11.148C38.3207 10.884 38.0127 10.752 37.5807 10.752C37.1407 10.752 36.8087 10.896 36.5847 11.184C36.3607 11.472 36.2487 11.82 36.2487 12.228H34.7607C34.7767 11.612 34.9127 11.1 35.1687 10.692C35.4247 10.276 35.7647 9.968 36.1887 9.768C36.6127 9.56 37.0887 9.456 37.6167 9.456C38.4727 9.456 39.1367 9.692 39.6087 10.164C40.0887 10.628 40.3287 11.232 40.3287 11.976C40.3287 12.44 40.2207 12.892 40.0047 13.332C39.7967 13.772 39.5207 14.196 39.1767 14.604C38.8327 15.012 38.4607 15.396 38.0607 15.756C37.6607 16.108 37.2727 16.436 36.8967 16.74H40.5327V18H34.7487ZM45.2916 18.084C45.0116 18.084 44.7796 17.996 44.5956 17.82C44.4196 17.644 44.3316 17.432 44.3316 17.184C44.3316 16.928 44.4196 16.712 44.5956 16.536C44.7796 16.36 45.0116 16.272 45.2916 16.272C45.5716 16.272 45.7996 16.36 45.9756 16.536C46.1596 16.712 46.2516 16.928 46.2516 17.184C46.2516 17.432 46.1596 17.644 45.9756 17.82C45.7996 17.996 45.5716 18.084 45.2916 18.084ZM45.2916 13.716C45.0116 13.716 44.7796 13.628 44.5956 13.452C44.4196 13.276 44.3316 13.064 44.3316 12.816C44.3316 12.56 44.4196 12.344 44.5956 12.168C44.7796 11.992 45.0116 11.904 45.2916 11.904C45.5716 11.904 45.7996 11.992 45.9756 12.168C46.1596 12.344 46.2516 12.56 46.2516 12.816C46.2516 13.064 46.1596 13.276 45.9756 13.452C45.7996 13.628 45.5716 13.716 45.2916 13.716ZM53.8772 18.144C53.1012 18.144 52.4372 17.964 51.8852 17.604C51.3332 17.236 50.9052 16.728 50.6012 16.08C50.3052 15.424 50.1572 14.664 50.1572 13.8C50.1572 12.944 50.3052 12.188 50.6012 11.532C50.9052 10.876 51.3332 10.368 51.8852 10.008C52.4372 9.64 53.1012 9.456 53.8772 9.456C54.6532 9.456 55.3172 9.64 55.8692 10.008C56.4212 10.368 56.8452 10.876 57.1412 11.532C57.4452 12.188 57.5972 12.944 57.5972 13.8C57.5972 14.664 57.4452 15.424 57.1412 16.08C56.8452 16.728 56.4212 17.236 55.8692 17.604C55.3172 17.964 54.6532 18.144 53.8772 18.144ZM53.8772 16.764C54.5092 16.764 55.0252 16.5 55.4252 15.972C55.8252 15.444 56.0252 14.72 56.0252 13.8C56.0252 12.88 55.8252 12.156 55.4252 11.628C55.0252 11.1 54.5092 10.836 53.8772 10.836C53.2372 10.836 52.7172 11.1 52.3172 11.628C51.9252 12.156 51.7292 12.88 51.7292 13.8C51.7292 14.72 51.9252 15.444 52.3172 15.972C52.7172 16.5 53.2372 16.764 53.8772 16.764ZM61.7007 18.144C61.1487 18.144 60.6487 18.048 60.2007 17.856C59.7527 17.656 59.3927 17.352 59.1207 16.944C58.8487 16.536 58.7047 16.024 58.6887 15.408H60.2007C60.2087 15.816 60.3407 16.16 60.5967 16.44C60.8607 16.712 61.2287 16.848 61.7007 16.848C62.1487 16.848 62.4927 16.724 62.7327 16.476C62.9727 16.228 63.0927 15.916 63.0927 15.54C63.0927 15.1 62.9327 14.768 62.6127 14.544C62.3007 14.312 61.8967 14.196 61.4007 14.196H60.7767V12.936H61.4127C61.8207 12.936 62.1607 12.84 62.4327 12.648C62.7047 12.456 62.8407 12.172 62.8407 11.796C62.8407 11.484 62.7367 11.236 62.5287 11.052C62.3287 10.86 62.0487 10.764 61.6887 10.764C61.2967 10.764 60.9887 10.88 60.7647 11.112C60.5487 11.344 60.4287 11.628 60.4047 11.964H58.9047C58.9367 11.188 59.2047 10.576 59.7087 10.128C60.2207 9.68 60.8807 9.456 61.6887 9.456C62.2647 9.456 62.7487 9.56 63.1407 9.768C63.5407 9.968 63.8407 10.236 64.0407 10.572C64.2487 10.908 64.3527 11.28 64.3527 11.688C64.3527 12.16 64.2207 12.56 63.9567 12.888C63.7007 13.208 63.3807 13.424 62.9967 13.536C63.4687 13.632 63.8527 13.864 64.1487 14.232C64.4447 14.592 64.5927 15.048 64.5927 15.6C64.5927 16.064 64.4807 16.488 64.2567 16.872C64.0327 17.256 63.7047 17.564 63.2727 17.796C62.8487 18.028 62.3247 18.144 61.7007 18.144ZM69.5845 18.084C69.3045 18.084 69.0725 17.996 68.8885 17.82C68.7125 17.644 68.6245 17.432 68.6245 17.184C68.6245 16.928 68.7125 16.712 68.8885 16.536C69.0725 16.36 69.3045 16.272 69.5845 16.272C69.8645 16.272 70.0925 16.36 70.2685 16.536C70.4525 16.712 70.5445 16.928 70.5445 17.184C70.5445 17.432 70.4525 17.644 70.2685 17.82C70.0925 17.996 69.8645 18.084 69.5845 18.084ZM69.5845 13.716C69.3045 13.716 69.0725 13.628 68.8885 13.452C68.7125 13.276 68.6245 13.064 68.6245 12.816C68.6245 12.56 68.7125 12.344 68.8885 12.168C69.0725 11.992 69.3045 11.904 69.5845 11.904C69.8645 11.904 70.0925 11.992 70.2685 12.168C70.4525 12.344 70.5445 12.56 70.5445 12.816C70.5445 13.064 70.4525 13.276 70.2685 13.452C70.0925 13.628 69.8645 13.716 69.5845 13.716ZM78.5662 18V16.44H74.4262V15.216L78.3622 9.6H80.1022V15.108H81.2062V16.44H80.1022V18H78.5662ZM76.0702 15.108H78.6622V11.292L76.0702 15.108ZM85.4257 18.144C84.8097 18.144 84.2777 18.036 83.8297 17.82C83.3897 17.604 83.0417 17.308 82.7857 16.932C82.5377 16.548 82.3937 16.116 82.3537 15.636H83.8537C83.9257 15.98 84.1017 16.268 84.3817 16.5C84.6617 16.724 85.0097 16.836 85.4257 16.836C85.8737 16.836 86.2377 16.672 86.5177 16.344C86.8057 16.016 86.9497 15.608 86.9497 15.12C86.9497 14.616 86.8057 14.216 86.5177 13.92C86.2377 13.624 85.8817 13.476 85.4497 13.476C85.0897 13.476 84.7777 13.564 84.5137 13.74C84.2497 13.916 84.0617 14.136 83.9497 14.4H82.4737L83.1937 9.6H87.8497V10.944H84.3457L83.9617 12.888C84.1377 12.696 84.3777 12.54 84.6817 12.42C84.9857 12.292 85.3257 12.228 85.7017 12.228C86.3017 12.228 86.8017 12.364 87.2017 12.636C87.6017 12.9 87.9057 13.252 88.1137 13.692C88.3217 14.124 88.4257 14.596 88.4257 15.108C88.4257 15.692 88.2977 16.212 88.0417 16.668C87.7937 17.124 87.4417 17.484 86.9857 17.748C86.5377 18.012 86.0177 18.144 85.4257 18.144Z" fill="white"/>
</g>
<defs>
<filter id="filter0_b_1_982" x="-34" y="-34" width="168" height="96" filterUnits="userSpaceOnUse" color-interpolation-filters="sRGB">
<feFlood flood-opacity="0" result="BackgroundImageFix"/>
<feGaussianBlur in="BackgroundImageFix" stdDeviation="17"/>
<feComposite in2="SourceAlpha" operator="in" result="effect1_backgroundBlur_1_982"/>
<feBlend mode="normal" in="SourceGraphic" in2="effect1_backgroundBlur_1_982" result="shape"/>
</filter>
</defs>
</svg>
