<svg width="56" height="30" viewBox="0 0 56 30" fill="none" xmlns="http://www.w3.org/2000/svg">
<rect width="56" height="30" rx="15" fill="#F0F0F0"/>
<rect x="4" y="4" width="22" height="22" rx="11" fill="white"/>
<path fill-rule="evenodd" clip-rule="evenodd" d="M15 9.75C15.174 9.75 15.341 9.81914 15.464 9.94221C15.5871 10.0653 15.6562 10.2322 15.6562 10.4062V11.0625C15.6562 11.2365 15.5871 11.4035 15.464 11.5265C15.341 11.6496 15.174 11.7188 15 11.7188C14.826 11.7188 14.659 11.6496 14.536 11.5265C14.4129 11.4035 14.3438 11.2365 14.3438 11.0625V10.4062C14.3438 10.2322 14.4129 10.0653 14.536 9.94221C14.659 9.81914 14.826 9.75 15 9.75ZM17.625 15C17.625 15.6962 17.3484 16.3639 16.8562 16.8562C16.3639 17.3484 15.6962 17.625 15 17.625C14.3038 17.625 13.6361 17.3484 13.1438 16.8562C12.6516 16.3639 12.375 15.6962 12.375 15C12.375 14.3038 12.6516 13.6361 13.1438 13.1438C13.6361 12.6516 14.3038 12.375 15 12.375C15.6962 12.375 16.3639 12.6516 16.8562 13.1438C17.3484 13.6361 17.625 14.3038 17.625 15ZM17.3205 18.2484L17.7845 18.7124C17.9082 18.8319 18.074 18.8981 18.2461 18.8966C18.4181 18.8951 18.5827 18.8261 18.7044 18.7044C18.8261 18.5827 18.8951 18.4181 18.8966 18.2461C18.8981 18.074 18.8319 17.9082 18.7124 17.7845L18.2484 17.3205C18.1247 17.201 17.9589 17.1348 17.7868 17.1363C17.6148 17.1378 17.4502 17.2068 17.3285 17.3285C17.2068 17.4502 17.1378 17.6148 17.1363 17.7868C17.1348 17.9589 17.201 18.1247 17.3205 18.2484ZM18.7118 11.2876C18.8348 11.4107 18.9039 11.5775 18.9039 11.7516C18.9039 11.9256 18.8348 12.0925 18.7118 12.2155L18.2484 12.6795C18.1879 12.7422 18.1155 12.7922 18.0354 12.8266C17.9554 12.861 17.8692 12.8791 17.7821 12.8798C17.695 12.8806 17.6086 12.864 17.5279 12.831C17.4473 12.798 17.374 12.7493 17.3124 12.6876C17.2507 12.626 17.202 12.5527 17.169 12.4721C17.136 12.3914 17.1194 12.305 17.1202 12.2179C17.1209 12.1308 17.139 12.0446 17.1734 11.9646C17.2078 11.8845 17.2578 11.8121 17.3205 11.7516L17.7845 11.2876C17.9075 11.1646 18.0744 11.0955 18.2484 11.0955C18.4225 11.0955 18.5893 11.1646 18.7124 11.2876H18.7118ZM19.5938 15.6562C19.7678 15.6562 19.9347 15.5871 20.0578 15.464C20.1809 15.341 20.25 15.174 20.25 15C20.25 14.826 20.1809 14.659 20.0578 14.536C19.9347 14.4129 19.7678 14.3438 19.5938 14.3438H18.9375C18.7635 14.3438 18.5965 14.4129 18.4735 14.536C18.3504 14.659 18.2812 14.826 18.2812 15C18.2812 15.174 18.3504 15.341 18.4735 15.464C18.5965 15.5871 18.7635 15.6562 18.9375 15.6562H19.5938ZM15 18.2812C15.174 18.2812 15.341 18.3504 15.464 18.4735C15.5871 18.5965 15.6562 18.7635 15.6562 18.9375V19.5938C15.6562 19.7678 15.5871 19.9347 15.464 20.0578C15.341 20.1809 15.174 20.25 15 20.25C14.826 20.25 14.659 20.1809 14.536 20.0578C14.4129 19.9347 14.3438 19.7678 14.3438 19.5938V18.9375C14.3438 18.7635 14.4129 18.5965 14.536 18.4735C14.659 18.3504 14.826 18.2812 15 18.2812ZM11.7516 12.6795C11.8125 12.7405 11.8848 12.7888 11.9645 12.8219C12.0441 12.8549 12.1294 12.8719 12.2156 12.8719C12.3018 12.8719 12.3872 12.855 12.4668 12.822C12.5465 12.7891 12.6189 12.7408 12.6798 12.6798C12.7408 12.6189 12.7892 12.5466 12.8222 12.4669C12.8552 12.3873 12.8722 12.302 12.8722 12.2158C12.8723 12.1296 12.8553 12.0442 12.8224 11.9646C12.7894 11.8849 12.7411 11.8125 12.6802 11.7516L12.2155 11.2876C12.0918 11.1681 11.926 11.1019 11.7539 11.1034C11.5819 11.1049 11.4173 11.1739 11.2956 11.2956C11.1739 11.4173 11.1049 11.5819 11.1034 11.7539C11.1019 11.926 11.1681 12.0918 11.2876 12.2155L11.7516 12.6795ZM12.6795 18.2484L12.2155 18.7124C12.0918 18.8319 11.926 18.8981 11.7539 18.8966C11.5819 18.8951 11.4173 18.8261 11.2956 18.7044C11.1739 18.5827 11.1049 18.4181 11.1034 18.2461C11.1019 18.074 11.1681 17.9082 11.2876 17.7845L11.7516 17.3205C11.8753 17.201 12.0411 17.1348 12.2132 17.1363C12.3852 17.1378 12.5498 17.2068 12.6715 17.3285C12.7932 17.4502 12.8622 17.6148 12.8637 17.7868C12.8652 17.9589 12.799 18.1247 12.6795 18.2484ZM11.0625 15.6562C11.2365 15.6562 11.4035 15.5871 11.5265 15.464C11.6496 15.341 11.7188 15.174 11.7188 15C11.7188 14.826 11.6496 14.659 11.5265 14.536C11.4035 14.4129 11.2365 14.3438 11.0625 14.3438H10.4062C10.2322 14.3438 10.0653 14.4129 9.94221 14.536C9.81914 14.659 9.75 14.826 9.75 15C9.75 15.174 9.81914 15.341 9.94221 15.464C10.0653 15.5871 10.2322 15.6562 10.4062 15.6562H11.0625Z" fill="#5429FF"/>
<path d="M45.8732 16.9565C44.9184 17.3404 43.8718 17.4353 42.8635 17.2293C41.8553 17.0233 40.9298 16.5256 40.2021 15.7979C39.4744 15.0702 38.9766 14.1447 38.7706 13.1365C38.5647 12.1282 38.6595 11.0816 39.0435 10.1268C37.9128 10.5823 36.9758 11.4168 36.393 12.4874C35.8102 13.558 35.618 14.798 35.8493 15.9948C36.0806 17.1916 36.721 18.2707 37.6608 19.047C38.6005 19.8234 39.781 20.2487 41 20.25C42.0482 20.25 43.0724 19.9364 43.9409 19.3495C44.8093 18.7625 45.4823 17.9291 45.8732 16.9565Z" stroke="#9E9CA4" stroke-linecap="round" stroke-linejoin="round"/>
</svg>
